<svg width="14" height="14" viewBox="0 0 14 14" fill="none" xmlns="http://www.w3.org/2000/svg">
<path d="M12.146 1.125H10.5522V0.59375C10.5522 0.452854 10.4963 0.317728 10.3966 0.2181C10.297 0.118471 10.1619 0.0625 10.021 0.0625C9.8801 0.0625 9.74497 0.118471 9.64535 0.2181C9.54572 0.317728 9.48975 0.452854 9.48975 0.59375V1.125H4.17725V0.59375C4.17725 0.452854 4.12128 0.317728 4.02165 0.2181C3.92202 0.118471 3.78689 0.0625 3.646 0.0625C3.5051 0.0625 3.36997 0.118471 3.27035 0.2181C3.17072 0.317728 3.11475 0.452854 3.11475 0.59375V1.125H1.521C1.2392 1.125 0.968952 1.23694 0.769695 1.4362C0.570438 1.63546 0.458496 1.90571 0.458496 2.1875V12.8125C0.458496 13.0943 0.570438 13.3645 0.769695 13.5638C0.968952 13.7631 1.2392 13.875 1.521 13.875H12.146C12.4278 13.875 12.698 13.7631 12.8973 13.5638C13.0966 13.3645 13.2085 13.0943 13.2085 12.8125V2.1875C13.2085 1.90571 13.0966 1.63546 12.8973 1.4362C12.698 1.23694 12.4278 1.125 12.146 1.125ZM12.146 4.3125H1.521V2.1875H3.11475V2.71875C3.11475 2.85965 3.17072 2.99477 3.27035 3.0944C3.36997 3.19403 3.5051 3.25 3.646 3.25C3.78689 3.25 3.92202 3.19403 4.02165 3.0944C4.12128 2.99477 4.17725 2.85965 4.17725 2.71875V2.1875H9.48975V2.71875C9.48975 2.85965 9.54572 2.99477 9.64535 3.0944C9.74497 3.19403 9.8801 3.25 10.021 3.25C10.1619 3.25 10.297 3.19403 10.3966 3.0944C10.4963 2.99477 10.5522 2.85965 10.5522 2.71875V2.1875H12.146V4.3125Z" fill="#282A3A"/>
</svg>
