<svg width="29" height="28" viewBox="0 0 29 28" fill="none" xmlns="http://www.w3.org/2000/svg">
<path fill-rule="evenodd" clip-rule="evenodd" d="M11.0886 17.7725C15.7056 17.7725 21.844 18.2924 21.844 22.7903C21.844 27.5284 14.6914 27.8126 11.6233 27.8297L10.5094 27.8297C7.23806 27.8127 0.333313 27.5301 0.333313 22.8186C0.333313 18.0752 7.48591 17.7906 10.554 17.7735L10.9226 17.7725C10.9801 17.7725 11.0354 17.7725 11.0886 17.7725ZM11.0886 19.8975C7.15173 19.8975 2.45831 20.4032 2.45831 22.8186C2.45831 24.734 5.36248 25.7058 11.0886 25.7058C16.8148 25.7058 19.719 24.724 19.719 22.7903C19.719 20.8707 16.8148 19.8975 11.0886 19.8975ZM24.0011 17.1107C27.8346 17.6845 28.6379 19.4596 28.6379 20.8465C28.6379 21.8792 28.1916 23.2775 26.0624 24.0836C25.9391 24.1303 25.8116 24.153 25.6856 24.153C25.2563 24.153 24.8526 23.8909 24.6925 23.4673C24.4842 22.9191 24.7605 22.3042 25.3087 22.0974C26.5129 21.6412 26.5129 21.0845 26.5129 20.8465C26.5129 20.0432 25.5623 19.4936 23.6881 19.2145C23.1072 19.1266 22.7063 18.5855 22.7927 18.0061C22.8806 17.4252 23.4316 17.0356 24.0011 17.1107ZM11.0886 0.833374C15.0992 0.833374 18.3633 4.09737 18.3633 8.10796C18.3717 10.0403 17.6223 11.865 16.2566 13.2391C14.8938 14.6147 13.0734 15.3755 11.1368 15.3825H11.0886C7.07665 15.3825 3.81265 12.1185 3.81265 8.10796C3.81265 4.09737 7.07665 0.833374 11.0886 0.833374ZM21.1294 2.42542C23.9132 2.88159 25.9333 5.26301 25.9333 8.08642C25.9277 10.9268 23.8069 13.3663 20.9991 13.7602C20.9495 13.7673 20.8999 13.7701 20.8503 13.7701C20.329 13.7701 19.8742 13.3862 19.7992 12.8549C19.7184 12.2741 20.1222 11.7358 20.703 11.655C22.471 11.4071 23.8055 9.87284 23.8083 8.08501C23.8083 6.30851 22.5362 4.80967 20.7866 4.52351C20.2072 4.42717 19.8147 3.88176 19.9097 3.30234C20.0046 2.72292 20.5528 2.33334 21.1294 2.42542ZM11.0886 2.95837C8.24823 2.95837 5.93765 5.26896 5.93765 8.10796C5.93765 10.947 8.24823 13.2575 11.0886 13.2575H11.1326C12.4982 13.2519 13.7846 12.715 14.7493 11.7417C15.7155 10.7713 16.2439 9.48071 16.2383 8.11221C16.2383 5.26896 13.9276 2.95837 11.0886 2.95837Z" fill="#FD6F00"/>
</svg>
