<svg width="24" height="25" viewBox="0 0 24 25" fill="none" xmlns="http://www.w3.org/2000/svg">
<path d="M22 17.1076V20.1076C22.0011 20.3861 21.9441 20.6618 21.8325 20.9169C21.7209 21.1721 21.5573 21.4012 21.3521 21.5895C21.1468 21.7777 20.9046 21.9211 20.6407 22.0103C20.3769 22.0995 20.0974 22.1327 19.82 22.1076C16.7428 21.7732 13.787 20.7217 11.19 19.0376C8.77382 17.5023 6.72533 15.4538 5.18999 13.0376C3.49997 10.4288 2.44824 7.45859 2.11999 4.3676C2.095 4.09106 2.12787 3.81236 2.21649 3.54922C2.30512 3.28609 2.44756 3.04429 2.63476 2.83922C2.82196 2.63415 3.0498 2.47031 3.30379 2.35812C3.55777 2.24593 3.83233 2.18786 4.10999 2.1876H7.10999C7.5953 2.18282 8.06579 2.35468 8.43376 2.67113C8.80173 2.98758 9.04207 3.42704 9.10999 3.9076C9.23662 4.86766 9.47144 5.81032 9.80999 6.7176C9.94454 7.07552 9.97366 7.46451 9.8939 7.83848C9.81415 8.21244 9.62886 8.55571 9.35999 8.8276L8.08999 10.0976C9.51355 12.6011 11.5864 14.674 14.09 16.0976L15.36 14.8276C15.6319 14.5587 15.9751 14.3734 16.3491 14.2937C16.7231 14.2139 17.1121 14.2431 17.47 14.3776C18.3773 14.7161 19.3199 14.951 20.28 15.0776C20.7658 15.1461 21.2094 15.3908 21.5265 15.7651C21.8437 16.1394 22.0122 16.6172 22 17.1076Z" stroke="#959595" stroke-width="2" stroke-linecap="round" stroke-linejoin="round"/>
</svg>
