<svg width="28" height="20" viewBox="0 0 28 20" fill="none" xmlns="http://www.w3.org/2000/svg">
<path d="M27.3504 3.39805C27.037 2.21985 26.1099 1.29035 24.9304 0.971847C22.7976 0.400147 14.2405 0.400146 14.2405 0.400146C14.2405 0.400146 5.68785 0.400147 3.55075 0.971847C2.37565 1.28605 1.44855 2.21545 1.13075 3.39805C0.560547 5.53615 0.560547 10.0001 0.560547 10.0001C0.560547 10.0001 0.560547 14.4641 1.13075 16.6023C1.44415 17.7805 2.37125 18.71 3.55075 19.0285C5.68785 19.6001 14.2405 19.6001 14.2405 19.6001C14.2405 19.6001 22.7976 19.6001 24.9304 19.0285C26.1055 18.7143 27.0326 17.7849 27.3504 16.6023C27.9205 14.4641 27.9205 10.0001 27.9205 10.0001C27.9205 10.0001 27.9205 5.53615 27.3504 3.39805Z" fill="white"/>
</svg>
