<svg width="48" height="48" viewBox="0 0 48 48" fill="none" xmlns="http://www.w3.org/2000/svg">
<path fill-rule="evenodd" clip-rule="evenodd" d="M11.7612 4.91678C20.1636 3.98544 28.643 3.98544 37.0454 4.91678C38.6493 5.09431 40.1467 5.80739 41.2954 6.94082C42.4442 8.07426 43.1773 9.56186 43.3763 11.1633C44.3718 19.6749 44.3718 28.2735 43.3763 36.7851C43.1773 38.3865 42.4442 39.8741 41.2954 41.0076C40.1467 42.141 38.6493 42.8541 37.0454 43.0316C28.6431 43.963 20.1636 43.963 11.7612 43.0316C10.1573 42.8541 8.65995 42.141 7.5112 41.0076C6.36245 39.8741 5.62934 38.3865 5.43029 36.7851C4.43484 28.2735 4.43484 19.6749 5.43029 11.1633C5.62934 9.56186 6.36245 8.07426 7.5112 6.94082C8.65995 5.80739 10.1573 5.09431 11.7612 4.91678ZM37.4575 1.21751C28.7813 0.255692 20.0253 0.255692 11.3491 1.21751C6.35387 1.77364 2.31943 5.70877 1.73351 10.7288C0.704146 19.5291 0.704146 28.4193 1.73351 37.2196C2.31943 42.2396 6.35138 46.1748 11.3491 46.7334C20.0254 47.6942 28.7812 47.6942 37.4575 46.7334C42.4527 46.1748 46.4872 42.2396 47.0731 37.2196C48.1024 28.4193 48.1024 19.5291 47.0731 10.7288C46.4872 5.70877 42.4552 1.77364 37.4575 1.21503M17.8861 32.6637H14.5543V14.5026C15.756 14.2841 17.4219 14.1203 19.6886 14.1203C22.1465 14.1203 23.949 14.6391 25.1233 15.6223C26.2157 16.5235 26.9258 17.971 26.9258 19.6915C26.9258 21.4393 26.3796 22.8868 25.3418 23.8699C24.0011 25.2081 21.9007 25.8362 19.5247 25.8362C18.8966 25.8362 18.3231 25.8089 17.8861 25.727V32.6637ZM19.8227 16.6874C18.8966 16.6874 18.2412 16.7693 17.8861 16.8512V23.0779C18.2958 23.1872 18.842 23.2145 19.5247 23.2145C22.0373 23.2145 23.5666 21.9855 23.5666 19.828C23.5666 17.7798 22.1465 16.6874 19.8252 16.6874M31.6206 32.6637H28.2615V23.6514C28.2615 21.849 28.2366 20.5654 28.1522 19.3638H31.0744L31.1836 21.9036H31.2929C31.9483 20.0192 33.505 19.0634 34.9251 19.0634C35.2528 19.0634 35.4465 19.0907 35.7196 19.1453V22.3133C35.3958 22.242 35.0654 22.2053 34.7339 22.204C33.1226 22.204 32.0302 23.2418 31.7298 24.7438C31.6621 25.0858 31.6256 25.4331 31.6206 25.7816V32.6637Z" fill="#959595"/>
</svg>
