<svg width="51" height="50" viewBox="0 0 51 50" fill="none" xmlns="http://www.w3.org/2000/svg">
<path d="M48.0695 12.4615V37.5386C48.0695 40.199 47.0127 42.7504 45.1316 44.6315C43.2504 46.5127 40.699 47.5695 38.0387 47.5695H12.9615C10.3011 47.5695 7.74976 46.5127 5.86861 44.6315C3.98745 42.7504 2.93063 40.199 2.93063 37.5386V12.4615C2.93063 9.80112 3.98745 7.24973 5.86861 5.36857C7.74976 3.48742 10.3011 2.4306 12.9615 2.4306H38.0387C40.699 2.4306 43.2504 3.48742 45.1316 5.36857C47.0127 7.24973 48.0695 9.80112 48.0695 12.4615Z" stroke="#959595" stroke-width="4" stroke-linecap="round" stroke-linejoin="round"/>
<path d="M12.9615 35.0309V25M12.9615 25V14.9692H17.9769C19.3071 14.9692 20.5828 15.4976 21.5234 16.4382C22.4639 17.3787 22.9924 18.6544 22.9924 19.9846C22.9924 21.3148 22.4639 22.5905 21.5234 23.5311C20.5828 24.4716 19.3071 25 17.9769 25H12.9615ZM38.0387 22.4923C37.2713 20.9551 35.699 19.9846 33.9812 19.9846H33.0232C32.0256 19.9846 31.0688 20.3809 30.3634 21.0864C29.658 21.7918 29.2616 22.7486 29.2616 23.7462C29.2616 24.7438 29.658 25.7006 30.3634 26.406C31.0688 27.1115 32.0256 27.5078 33.0232 27.5078H34.2771C35.2747 27.5078 36.2315 27.9041 36.9369 28.6095C37.6423 29.3149 38.0387 30.2717 38.0387 31.2693C38.0387 32.267 37.6423 33.2237 36.9369 33.9292C36.2315 34.6346 35.2747 35.0309 34.2771 35.0309H33.3191C32.4767 35.0309 31.6508 34.7963 30.9342 34.3534C30.2176 33.9105 29.6384 33.2767 29.2616 32.5232" stroke="#959595" stroke-width="4" stroke-linecap="round" stroke-linejoin="round"/>
</svg>
