<svg width="50" height="50" viewBox="0 0 50 50" fill="none" xmlns="http://www.w3.org/2000/svg">
<path d="M12.7114 14.9692L22.7423 35.0309M12.7114 35.0309L22.7423 14.9692M47.8194 12.4615V37.5386C47.8194 40.199 46.7626 42.7504 44.8815 44.6315C43.0003 46.5127 40.4489 47.5695 37.7886 47.5695H12.7114C10.0511 47.5695 7.49967 46.5127 5.61851 44.6315C3.73736 42.7504 2.68054 40.199 2.68054 37.5386V12.4615C2.68054 9.80112 3.73736 7.24973 5.61851 5.36857C7.49967 3.48742 10.0511 2.4306 12.7114 2.4306H37.7886C40.4489 2.4306 43.0003 3.48742 44.8815 5.36857C46.7626 7.24973 47.8194 9.80112 47.8194 12.4615Z" stroke="#959595" stroke-width="4" stroke-linecap="round" stroke-linejoin="round"/>
<path d="M37.7886 25.0001V33.5263C37.7886 33.7239 37.7496 33.9195 37.674 34.1021C37.5984 34.2846 37.4876 34.4505 37.3479 34.5902C37.2081 34.7299 37.0423 34.8408 36.8597 34.9164C36.6772 34.992 36.4815 35.0309 36.2839 35.0309H32.7731C31.4429 35.0309 30.1673 34.5025 29.2267 33.5619C28.2861 32.6214 27.7577 31.3457 27.7577 30.0155C27.7577 28.6853 28.2861 27.4096 29.2267 26.469C30.1673 25.5285 31.4429 25.0001 32.7731 25.0001H37.7886ZM37.7886 25.0001V17.4769" stroke="#959595" stroke-width="4" stroke-linecap="round" stroke-linejoin="round"/>
</svg>
