<svg width="26" height="36" viewBox="0 0 26 36" fill="none" xmlns="http://www.w3.org/2000/svg">
<path fill-rule="evenodd" clip-rule="evenodd" d="M14.2499 23.505C15.4045 24.431 16.8345 24.9464 18.3144 24.9699C19.7944 24.9934 21.24 24.5236 22.4234 23.6346C23.6068 22.7455 24.4605 21.4879 24.8501 20.06C25.2397 18.6321 25.1429 17.1151 24.5749 15.7483C24.1 14.6004 23.3138 13.6081 22.3049 12.8833C23.1655 12.2664 23.8666 11.4532 24.3501 10.5112C24.8336 9.56919 25.0855 8.52547 25.0849 7.46662C25.0849 5.69851 24.3825 4.00282 23.1323 2.75257C21.882 1.50233 20.1864 0.799952 18.4182 0.799952H7.58491C6.1735 0.799544 4.79837 1.2471 3.65757 2.07816C2.51676 2.90922 1.66915 4.0809 1.2368 5.42446C0.804455 6.76802 0.809676 8.21414 1.25172 9.55455C1.69376 10.895 2.54981 12.0605 3.69658 12.8833C2.83633 13.5005 2.13545 14.3138 1.65198 15.2557C1.1685 16.1976 0.916321 17.2412 0.916321 18.3C0.916321 19.3587 1.1685 20.4023 1.65198 21.3442C2.13545 22.2862 2.83633 23.0994 3.69658 23.7166C2.76847 24.3826 2.02706 25.2759 1.54346 26.3108C1.05986 27.3457 0.850301 28.4875 0.934877 29.6267C1.01945 30.7659 1.39533 31.8642 2.02645 32.8164C2.65757 33.7685 3.52277 34.5425 4.53904 35.0641C5.55532 35.5858 6.68858 35.8375 7.83012 35.7952C8.97166 35.7529 10.0832 35.418 11.0581 34.8226C12.0329 34.2272 12.8385 33.3913 13.3974 32.395C13.9563 31.3988 14.2499 30.2756 14.2499 29.1333V23.505ZM7.58325 3.29995C6.47818 3.29995 5.41837 3.73894 4.63697 4.52034C3.85557 5.30174 3.41658 6.36155 3.41658 7.46662C3.41658 8.57169 3.85557 9.6315 4.63697 10.4129C5.41837 11.1943 6.47818 11.6333 7.58325 11.6333H11.7499V3.29995H7.58325ZM11.7499 24.9666H7.58325C6.75916 24.9666 5.95358 25.211 5.26837 25.6688C4.58317 26.1267 4.04911 26.7774 3.73375 27.5388C3.41838 28.3001 3.33587 29.1379 3.49664 29.9462C3.65741 30.7544 4.05425 31.4968 4.63697 32.0796C5.21969 32.6623 5.96212 33.0591 6.77037 33.2199C7.57862 33.3807 8.4164 33.2981 9.17776 32.9828C9.93912 32.6674 10.5899 32.1334 11.0477 31.4482C11.5055 30.763 11.7499 29.9574 11.7499 29.1333V24.9666ZM7.58325 14.1333C6.47818 14.1333 5.41837 14.5723 4.63697 15.3537C3.85557 16.1351 3.41658 17.1949 3.41658 18.3C3.41658 19.405 3.85557 20.4648 4.63697 21.2462C5.41837 22.0276 6.47818 22.4666 7.58325 22.4666H11.7499V14.1333H7.58325ZM14.2499 18.3C14.2499 19.4052 14.689 20.4653 15.4705 21.2468C16.2521 22.0284 17.3121 22.4675 18.4174 22.4675C19.5227 22.4675 20.5827 22.0284 21.3643 21.2468C22.1458 20.4653 22.5849 19.4052 22.5849 18.3C22.5849 17.1947 22.1458 16.1346 21.3643 15.3531C20.5827 14.5715 19.5227 14.1325 18.4174 14.1325C17.3121 14.1325 16.2521 14.5715 15.4705 15.3531C14.689 16.1346 14.2499 17.1947 14.2499 18.3ZM18.4166 11.6333C19.5216 11.6333 20.5815 11.1943 21.3629 10.4129C22.1443 9.6315 22.5832 8.57169 22.5832 7.46662C22.5832 6.36155 22.1443 5.30174 21.3629 4.52034C20.5815 3.73894 19.5216 3.29995 18.4166 3.29995H14.2499V11.6333H18.4166Z" fill="#959595"/>
</svg>
