<svg width="22" height="22" viewBox="0 0 22 22" fill="currentColor" xmlns="http://www.w3.org/2000/svg">
<path d="M21 11C21.0017 12.3172 20.7424 13.6216 20.237 14.8379C19.7316 16.0543 18.9901 17.1584 18.0555 18.0865C17.1285 19.0118 16.0283 19.7454 14.8177 20.2454C13.6071 20.7453 12.3098 21.0017 11 21C5.47701 21 1.00001 16.523 1.00001 11C0.996513 8.43589 1.98144 5.96909 3.75001 4.11251C4.68318 3.12781 5.80747 2.34388 7.05407 1.8087C8.30068 1.27352 9.64338 0.998342 11 1.00001C12.3098 0.998312 13.6071 1.25475 14.8177 1.75466C16.0283 2.25458 17.1285 2.98817 18.0555 3.91351C18.9901 4.84162 19.7316 5.94575 20.237 7.16208C20.7424 8.37842 21.0017 9.68285 21 11Z" stroke="#BABABA" stroke-width="2" stroke-linecap="round" stroke-linejoin="round"/>
<path d="M21 11C19.541 11 15.516 10.45 11.9135 12.0315C8.00002 13.75 5.16652 16.416 3.93152 18.0735" stroke="#BABABA" stroke-width="2" stroke-linecap="round" stroke-linejoin="round"/>
<path d="M7.25 1.72705C8.815 3.17155 12.23 6.84905 13.5 10.5001C14.77 14.1511 15.24 18.6401 15.53 19.9176" stroke="#BABABA" stroke-width="2" stroke-linecap="round" stroke-linejoin="round"/>
<path d="M1.07703 9.75011C2.96603 9.86411 7.96653 9.96661 11.1665 8.60011C14.3665 7.23361 17.12 4.72011 18.0645 3.92261M1.75003 14.8066C2.63118 16.9396 4.22038 18.7037 6.25003 19.8021" stroke="#BABABA" stroke-width="2" stroke-linecap="round" stroke-linejoin="round"/>
<path d="M1.00001 11C0.996513 8.43589 1.98144 5.96909 3.75001 4.11251C4.68318 3.12781 5.80747 2.34388 7.05407 1.8087C8.30068 1.27352 9.64338 0.998341 11 1.00001M15 1.83201C16.1388 2.33028 17.175 3.03613 18.0555 3.91351C18.9901 4.84162 19.7316 5.94574 20.237 7.16208C20.7424 8.37842 21.0017 9.68285 21 11C21 12.231 20.7775 13.4105 20.37 14.5M11 21C12.3098 21.0017 13.6071 20.7453 14.8177 20.2454C16.0283 19.7454 17.1285 19.0118 18.0555 18.0865" stroke="#BABABA" stroke-width="2" stroke-linecap="round" stroke-linejoin="round"/>
</svg>
